<?xml version="1.0" encoding="utf-8" standalone="no"?>
<!DOCTYPE svg PUBLIC "-//W3C//DTD SVG 1.1//EN"
  "http://www.w3.org/Graphics/SVG/1.1/DTD/svg11.dtd">
<svg xmlns:xlink="http://www.w3.org/1999/xlink" width="460.8pt" height="345.6pt" viewBox="0 0 460.8 345.6" xmlns="http://www.w3.org/2000/svg" version="1.1">
 <metadata>
  <rdf:RDF xmlns:dc="http://purl.org/dc/elements/1.1/" xmlns:cc="http://creativecommons.org/ns#" xmlns:rdf="http://www.w3.org/1999/02/22-rdf-syntax-ns#">
   <cc:Work>
    <dc:type rdf:resource="http://purl.org/dc/dcmitype/StillImage"/>
    <dc:date>2025-11-09T21:55:20.080518</dc:date>
    <dc:format>image/svg+xml</dc:format>
    <dc:creator>
     <cc:Agent>
      <dc:title>Matplotlib v3.9.2, https://matplotlib.org/</dc:title>
     </cc:Agent>
    </dc:creator>
   </cc:Work>
  </rdf:RDF>
 </metadata>
 <defs>
  <style type="text/css">*{stroke-linejoin: round; stroke-linecap: butt}</style>
 </defs>
 <g id="figure_1">
  <g id="patch_1">
   <path d="M 0 345.6 
L 460.8 345.6 
L 460.8 0 
L 0 0 
z
" style="fill: #ffffff"/>
  </g>
  <g id="axes_1">
   <g id="patch_2">
    <path d="M 57.6 307.584 
L 414.72 307.584 
L 414.72 41.472 
L 57.6 41.472 
z
" style="fill: #ffffff"/>
   </g>
   <g id="matplotlib.axis_1">
    <g id="xtick_1">
     <g id="line2d_1">
      <defs>
       <path id="m8955383897" d="M 0 0 
L 0 3.5 
" style="stroke: #000000; stroke-width: 0.8"/>
      </defs>
      <g>
       <use xlink:href="#m8955383897" x="102.240064" y="307.584" style="stroke: #000000; stroke-width: 0.8"/>
      </g>
     </g>
     <g id="text_1">
      <!-- 9.25 -->
      <g transform="translate(91.107251 322.182437) scale(0.1 -0.1)">
       <defs>
        <path id="DejaVuSans-39" d="M 703 97 
L 703 672 
Q 941 559 1184 500 
Q 1428 441 1663 441 
Q 2288 441 2617 861 
Q 2947 1281 2994 2138 
Q 2813 1869 2534 1725 
Q 2256 1581 1919 1581 
Q 1219 1581 811 2004 
Q 403 2428 403 3163 
Q 403 3881 828 4315 
Q 1253 4750 1959 4750 
Q 2769 4750 3195 4129 
Q 3622 3509 3622 2328 
Q 3622 1225 3098 567 
Q 2575 -91 1691 -91 
Q 1453 -91 1209 -44 
Q 966 3 703 97 
z
M 1959 2075 
Q 2384 2075 2632 2365 
Q 2881 2656 2881 3163 
Q 2881 3666 2632 3958 
Q 2384 4250 1959 4250 
Q 1534 4250 1286 3958 
Q 1038 3666 1038 3163 
Q 1038 2656 1286 2365 
Q 1534 2075 1959 2075 
z
" transform="scale(0.015625)"/>
        <path id="DejaVuSans-2e" d="M 684 794 
L 1344 794 
L 1344 0 
L 684 0 
L 684 794 
z
" transform="scale(0.015625)"/>
        <path id="DejaVuSans-32" d="M 1228 531 
L 3431 531 
L 3431 0 
L 469 0 
L 469 531 
Q 828 903 1448 1529 
Q 2069 2156 2228 2338 
Q 2531 2678 2651 2914 
Q 2772 3150 2772 3378 
Q 2772 3750 2511 3984 
Q 2250 4219 1831 4219 
Q 1534 4219 1204 4116 
Q 875 4013 500 3803 
L 500 4441 
Q 881 4594 1212 4672 
Q 1544 4750 1819 4750 
Q 2544 4750 2975 4387 
Q 3406 4025 3406 3419 
Q 3406 3131 3298 2873 
Q 3191 2616 2906 2266 
Q 2828 2175 2409 1742 
Q 1991 1309 1228 531 
z
" transform="scale(0.015625)"/>
        <path id="DejaVuSans-35" d="M 691 4666 
L 3169 4666 
L 3169 4134 
L 1269 4134 
L 1269 2991 
Q 1406 3038 1543 3061 
Q 1681 3084 1819 3084 
Q 2600 3084 3056 2656 
Q 3513 2228 3513 1497 
Q 3513 744 3044 326 
Q 2575 -91 1722 -91 
Q 1428 -91 1123 -41 
Q 819 9 494 109 
L 494 744 
Q 775 591 1075 516 
Q 1375 441 1709 441 
Q 2250 441 2565 725 
Q 2881 1009 2881 1497 
Q 2881 1984 2565 2268 
Q 2250 2553 1709 2553 
Q 1456 2553 1204 2497 
Q 953 2441 691 2322 
L 691 4666 
z
" transform="scale(0.015625)"/>
       </defs>
       <use xlink:href="#DejaVuSans-39"/>
       <use xlink:href="#DejaVuSans-2e" x="63.623047"/>
       <use xlink:href="#DejaVuSans-32" x="95.410156"/>
       <use xlink:href="#DejaVuSans-35" x="159.033203"/>
      </g>
     </g>
    </g>
    <g id="xtick_2">
     <g id="line2d_2">
      <g>
       <use xlink:href="#m8955383897" x="146.880298" y="307.584" style="stroke: #000000; stroke-width: 0.8"/>
      </g>
     </g>
     <g id="text_2">
      <!-- 9.50 -->
      <g transform="translate(135.747486 322.182437) scale(0.1 -0.1)">
       <defs>
        <path id="DejaVuSans-30" d="M 2034 4250 
Q 1547 4250 1301 3770 
Q 1056 3291 1056 2328 
Q 1056 1369 1301 889 
Q 1547 409 2034 409 
Q 2525 409 2770 889 
Q 3016 1369 3016 2328 
Q 3016 3291 2770 3770 
Q 2525 4250 2034 4250 
z
M 2034 4750 
Q 2819 4750 3233 4129 
Q 3647 3509 3647 2328 
Q 3647 1150 3233 529 
Q 2819 -91 2034 -91 
Q 1250 -91 836 529 
Q 422 1150 422 2328 
Q 422 3509 836 4129 
Q 1250 4750 2034 4750 
z
" transform="scale(0.015625)"/>
       </defs>
       <use xlink:href="#DejaVuSans-39"/>
       <use xlink:href="#DejaVuSans-2e" x="63.623047"/>
       <use xlink:href="#DejaVuSans-35" x="95.410156"/>
       <use xlink:href="#DejaVuSans-30" x="159.033203"/>
      </g>
     </g>
    </g>
    <g id="xtick_3">
     <g id="line2d_3">
      <g>
       <use xlink:href="#m8955383897" x="191.520532" y="307.584" style="stroke: #000000; stroke-width: 0.8"/>
      </g>
     </g>
     <g id="text_3">
      <!-- 9.75 -->
      <g transform="translate(180.38772 322.182437) scale(0.1 -0.1)">
       <defs>
        <path id="DejaVuSans-37" d="M 525 4666 
L 3525 4666 
L 3525 4397 
L 1831 0 
L 1172 0 
L 2766 4134 
L 525 4134 
L 525 4666 
z
" transform="scale(0.015625)"/>
       </defs>
       <use xlink:href="#DejaVuSans-39"/>
       <use xlink:href="#DejaVuSans-2e" x="63.623047"/>
       <use xlink:href="#DejaVuSans-37" x="95.410156"/>
       <use xlink:href="#DejaVuSans-35" x="159.033203"/>
      </g>
     </g>
    </g>
    <g id="xtick_4">
     <g id="line2d_4">
      <g>
       <use xlink:href="#m8955383897" x="236.160766" y="307.584" style="stroke: #000000; stroke-width: 0.8"/>
      </g>
     </g>
     <g id="text_4">
      <!-- 10.00 -->
      <g transform="translate(221.846704 322.182437) scale(0.1 -0.1)">
       <defs>
        <path id="DejaVuSans-31" d="M 794 531 
L 1825 531 
L 1825 4091 
L 703 3866 
L 703 4441 
L 1819 4666 
L 2450 4666 
L 2450 531 
L 3481 531 
L 3481 0 
L 794 0 
L 794 531 
z
" transform="scale(0.015625)"/>
       </defs>
       <use xlink:href="#DejaVuSans-31"/>
       <use xlink:href="#DejaVuSans-30" x="63.623047"/>
       <use xlink:href="#DejaVuSans-2e" x="127.246094"/>
       <use xlink:href="#DejaVuSans-30" x="159.033203"/>
       <use xlink:href="#DejaVuSans-30" x="222.65625"/>
      </g>
     </g>
    </g>
    <g id="xtick_5">
     <g id="line2d_5">
      <g>
       <use xlink:href="#m8955383897" x="280.801" y="307.584" style="stroke: #000000; stroke-width: 0.8"/>
      </g>
     </g>
     <g id="text_5">
      <!-- 10.25 -->
      <g transform="translate(266.486938 322.182437) scale(0.1 -0.1)">
       <use xlink:href="#DejaVuSans-31"/>
       <use xlink:href="#DejaVuSans-30" x="63.623047"/>
       <use xlink:href="#DejaVuSans-2e" x="127.246094"/>
       <use xlink:href="#DejaVuSans-32" x="159.033203"/>
       <use xlink:href="#DejaVuSans-35" x="222.65625"/>
      </g>
     </g>
    </g>
    <g id="xtick_6">
     <g id="line2d_6">
      <g>
       <use xlink:href="#m8955383897" x="325.441235" y="307.584" style="stroke: #000000; stroke-width: 0.8"/>
      </g>
     </g>
     <g id="text_6">
      <!-- 10.50 -->
      <g transform="translate(311.127172 322.182437) scale(0.1 -0.1)">
       <use xlink:href="#DejaVuSans-31"/>
       <use xlink:href="#DejaVuSans-30" x="63.623047"/>
       <use xlink:href="#DejaVuSans-2e" x="127.246094"/>
       <use xlink:href="#DejaVuSans-35" x="159.033203"/>
       <use xlink:href="#DejaVuSans-30" x="222.65625"/>
      </g>
     </g>
    </g>
    <g id="xtick_7">
     <g id="line2d_7">
      <g>
       <use xlink:href="#m8955383897" x="370.081469" y="307.584" style="stroke: #000000; stroke-width: 0.8"/>
      </g>
     </g>
     <g id="text_7">
      <!-- 10.75 -->
      <g transform="translate(355.767406 322.182437) scale(0.1 -0.1)">
       <use xlink:href="#DejaVuSans-31"/>
       <use xlink:href="#DejaVuSans-30" x="63.623047"/>
       <use xlink:href="#DejaVuSans-2e" x="127.246094"/>
       <use xlink:href="#DejaVuSans-37" x="159.033203"/>
       <use xlink:href="#DejaVuSans-35" x="222.65625"/>
      </g>
     </g>
    </g>
    <g id="text_8">
     <!-- Invariant Mass (GeV/c^2) -->
     <g transform="translate(172.012344 335.860562) scale(0.1 -0.1)">
      <defs>
       <path id="DejaVuSans-49" d="M 628 4666 
L 1259 4666 
L 1259 0 
L 628 0 
L 628 4666 
z
" transform="scale(0.015625)"/>
       <path id="DejaVuSans-6e" d="M 3513 2113 
L 3513 0 
L 2938 0 
L 2938 2094 
Q 2938 2591 2744 2837 
Q 2550 3084 2163 3084 
Q 1697 3084 1428 2787 
Q 1159 2491 1159 1978 
L 1159 0 
L 581 0 
L 581 3500 
L 1159 3500 
L 1159 2956 
Q 1366 3272 1645 3428 
Q 1925 3584 2291 3584 
Q 2894 3584 3203 3211 
Q 3513 2838 3513 2113 
z
" transform="scale(0.015625)"/>
       <path id="DejaVuSans-76" d="M 191 3500 
L 800 3500 
L 1894 563 
L 2988 3500 
L 3597 3500 
L 2284 0 
L 1503 0 
L 191 3500 
z
" transform="scale(0.015625)"/>
       <path id="DejaVuSans-61" d="M 2194 1759 
Q 1497 1759 1228 1600 
Q 959 1441 959 1056 
Q 959 750 1161 570 
Q 1363 391 1709 391 
Q 2188 391 2477 730 
Q 2766 1069 2766 1631 
L 2766 1759 
L 2194 1759 
z
M 3341 1997 
L 3341 0 
L 2766 0 
L 2766 531 
Q 2569 213 2275 61 
Q 1981 -91 1556 -91 
Q 1019 -91 701 211 
Q 384 513 384 1019 
Q 384 1609 779 1909 
Q 1175 2209 1959 2209 
L 2766 2209 
L 2766 2266 
Q 2766 2663 2505 2880 
Q 2244 3097 1772 3097 
Q 1472 3097 1187 3025 
Q 903 2953 641 2809 
L 641 3341 
Q 956 3463 1253 3523 
Q 1550 3584 1831 3584 
Q 2591 3584 2966 3190 
Q 3341 2797 3341 1997 
z
" transform="scale(0.015625)"/>
       <path id="DejaVuSans-72" d="M 2631 2963 
Q 2534 3019 2420 3045 
Q 2306 3072 2169 3072 
Q 1681 3072 1420 2755 
Q 1159 2438 1159 1844 
L 1159 0 
L 581 0 
L 581 3500 
L 1159 3500 
L 1159 2956 
Q 1341 3275 1631 3429 
Q 1922 3584 2338 3584 
Q 2397 3584 2469 3576 
Q 2541 3569 2628 3553 
L 2631 2963 
z
" transform="scale(0.015625)"/>
       <path id="DejaVuSans-69" d="M 603 3500 
L 1178 3500 
L 1178 0 
L 603 0 
L 603 3500 
z
M 603 4863 
L 1178 4863 
L 1178 4134 
L 603 4134 
L 603 4863 
z
" transform="scale(0.015625)"/>
       <path id="DejaVuSans-74" d="M 1172 4494 
L 1172 3500 
L 2356 3500 
L 2356 3053 
L 1172 3053 
L 1172 1153 
Q 1172 725 1289 603 
Q 1406 481 1766 481 
L 2356 481 
L 2356 0 
L 1766 0 
Q 1100 0 847 248 
Q 594 497 594 1153 
L 594 3053 
L 172 3053 
L 172 3500 
L 594 3500 
L 594 4494 
L 1172 4494 
z
" transform="scale(0.015625)"/>
       <path id="DejaVuSans-20" transform="scale(0.015625)"/>
       <path id="DejaVuSans-4d" d="M 628 4666 
L 1569 4666 
L 2759 1491 
L 3956 4666 
L 4897 4666 
L 4897 0 
L 4281 0 
L 4281 4097 
L 3078 897 
L 2444 897 
L 1241 4097 
L 1241 0 
L 628 0 
L 628 4666 
z
" transform="scale(0.015625)"/>
       <path id="DejaVuSans-73" d="M 2834 3397 
L 2834 2853 
Q 2591 2978 2328 3040 
Q 2066 3103 1784 3103 
Q 1356 3103 1142 2972 
Q 928 2841 928 2578 
Q 928 2378 1081 2264 
Q 1234 2150 1697 2047 
L 1894 2003 
Q 2506 1872 2764 1633 
Q 3022 1394 3022 966 
Q 3022 478 2636 193 
Q 2250 -91 1575 -91 
Q 1294 -91 989 -36 
Q 684 19 347 128 
L 347 722 
Q 666 556 975 473 
Q 1284 391 1588 391 
Q 1994 391 2212 530 
Q 2431 669 2431 922 
Q 2431 1156 2273 1281 
Q 2116 1406 1581 1522 
L 1381 1569 
Q 847 1681 609 1914 
Q 372 2147 372 2553 
Q 372 3047 722 3315 
Q 1072 3584 1716 3584 
Q 2034 3584 2315 3537 
Q 2597 3491 2834 3397 
z
" transform="scale(0.015625)"/>
       <path id="DejaVuSans-28" d="M 1984 4856 
Q 1566 4138 1362 3434 
Q 1159 2731 1159 2009 
Q 1159 1288 1364 580 
Q 1569 -128 1984 -844 
L 1484 -844 
Q 1016 -109 783 600 
Q 550 1309 550 2009 
Q 550 2706 781 3412 
Q 1013 4119 1484 4856 
L 1984 4856 
z
" transform="scale(0.015625)"/>
       <path id="DejaVuSans-47" d="M 3809 666 
L 3809 1919 
L 2778 1919 
L 2778 2438 
L 4434 2438 
L 4434 434 
Q 4069 175 3628 42 
Q 3188 -91 2688 -91 
Q 1594 -91 976 548 
Q 359 1188 359 2328 
Q 359 3472 976 4111 
Q 1594 4750 2688 4750 
Q 3144 4750 3555 4637 
Q 3966 4525 4313 4306 
L 4313 3634 
Q 3963 3931 3569 4081 
Q 3175 4231 2741 4231 
Q 1884 4231 1454 3753 
Q 1025 3275 1025 2328 
Q 1025 1384 1454 906 
Q 1884 428 2741 428 
Q 3075 428 3337 486 
Q 3600 544 3809 666 
z
" transform="scale(0.015625)"/>
       <path id="DejaVuSans-65" d="M 3597 1894 
L 3597 1613 
L 953 1613 
Q 991 1019 1311 708 
Q 1631 397 2203 397 
Q 2534 397 2845 478 
Q 3156 559 3463 722 
L 3463 178 
Q 3153 47 2828 -22 
Q 2503 -91 2169 -91 
Q 1331 -91 842 396 
Q 353 884 353 1716 
Q 353 2575 817 3079 
Q 1281 3584 2069 3584 
Q 2775 3584 3186 3129 
Q 3597 2675 3597 1894 
z
M 3022 2063 
Q 3016 2534 2758 2815 
Q 2500 3097 2075 3097 
Q 1594 3097 1305 2825 
Q 1016 2553 972 2059 
L 3022 2063 
z
" transform="scale(0.015625)"/>
       <path id="DejaVuSans-56" d="M 1831 0 
L 50 4666 
L 709 4666 
L 2188 738 
L 3669 4666 
L 4325 4666 
L 2547 0 
L 1831 0 
z
" transform="scale(0.015625)"/>
       <path id="DejaVuSans-2f" d="M 1625 4666 
L 2156 4666 
L 531 -594 
L 0 -594 
L 1625 4666 
z
" transform="scale(0.015625)"/>
       <path id="DejaVuSans-63" d="M 3122 3366 
L 3122 2828 
Q 2878 2963 2633 3030 
Q 2388 3097 2138 3097 
Q 1578 3097 1268 2742 
Q 959 2388 959 1747 
Q 959 1106 1268 751 
Q 1578 397 2138 397 
Q 2388 397 2633 464 
Q 2878 531 3122 666 
L 3122 134 
Q 2881 22 2623 -34 
Q 2366 -91 2075 -91 
Q 1284 -91 818 406 
Q 353 903 353 1747 
Q 353 2603 823 3093 
Q 1294 3584 2113 3584 
Q 2378 3584 2631 3529 
Q 2884 3475 3122 3366 
z
" transform="scale(0.015625)"/>
       <path id="DejaVuSans-5e" d="M 2988 4666 
L 4684 2925 
L 4056 2925 
L 2681 4159 
L 1306 2925 
L 678 2925 
L 2375 4666 
L 2988 4666 
z
" transform="scale(0.015625)"/>
       <path id="DejaVuSans-29" d="M 513 4856 
L 1013 4856 
Q 1481 4119 1714 3412 
Q 1947 2706 1947 2009 
Q 1947 1309 1714 600 
Q 1481 -109 1013 -844 
L 513 -844 
Q 928 -128 1133 580 
Q 1338 1288 1338 2009 
Q 1338 2731 1133 3434 
Q 928 4138 513 4856 
z
" transform="scale(0.015625)"/>
      </defs>
      <use xlink:href="#DejaVuSans-49"/>
      <use xlink:href="#DejaVuSans-6e" x="29.492188"/>
      <use xlink:href="#DejaVuSans-76" x="92.871094"/>
      <use xlink:href="#DejaVuSans-61" x="152.050781"/>
      <use xlink:href="#DejaVuSans-72" x="213.330078"/>
      <use xlink:href="#DejaVuSans-69" x="254.443359"/>
      <use xlink:href="#DejaVuSans-61" x="282.226562"/>
      <use xlink:href="#DejaVuSans-6e" x="343.505859"/>
      <use xlink:href="#DejaVuSans-74" x="406.884766"/>
      <use xlink:href="#DejaVuSans-20" x="446.09375"/>
      <use xlink:href="#DejaVuSans-4d" x="477.880859"/>
      <use xlink:href="#DejaVuSans-61" x="564.160156"/>
      <use xlink:href="#DejaVuSans-73" x="625.439453"/>
      <use xlink:href="#DejaVuSans-73" x="677.539062"/>
      <use xlink:href="#DejaVuSans-20" x="729.638672"/>
      <use xlink:href="#DejaVuSans-28" x="761.425781"/>
      <use xlink:href="#DejaVuSans-47" x="800.439453"/>
      <use xlink:href="#DejaVuSans-65" x="877.929688"/>
      <use xlink:href="#DejaVuSans-56" x="939.453125"/>
      <use xlink:href="#DejaVuSans-2f" x="1007.861328"/>
      <use xlink:href="#DejaVuSans-63" x="1041.552734"/>
      <use xlink:href="#DejaVuSans-5e" x="1096.533203"/>
      <use xlink:href="#DejaVuSans-32" x="1180.322266"/>
      <use xlink:href="#DejaVuSans-29" x="1243.945312"/>
     </g>
    </g>
   </g>
   <g id="matplotlib.axis_2">
    <g id="ytick_1">
     <g id="line2d_8">
      <defs>
       <path id="mbdb3879f87" d="M 0 0 
L -3.5 0 
" style="stroke: #000000; stroke-width: 0.8"/>
      </defs>
      <g>
       <use xlink:href="#mbdb3879f87" x="57.6" y="307.584" style="stroke: #000000; stroke-width: 0.8"/>
      </g>
     </g>
     <g id="text_9">
      <!-- 0 -->
      <g transform="translate(44.2375 311.383219) scale(0.1 -0.1)">
       <use xlink:href="#DejaVuSans-30"/>
      </g>
     </g>
    </g>
    <g id="ytick_2">
     <g id="line2d_9">
      <g>
       <use xlink:href="#mbdb3879f87" x="57.6" y="267.098377" style="stroke: #000000; stroke-width: 0.8"/>
      </g>
     </g>
     <g id="text_10">
      <!-- 1000 -->
      <g transform="translate(25.15 270.897596) scale(0.1 -0.1)">
       <use xlink:href="#DejaVuSans-31"/>
       <use xlink:href="#DejaVuSans-30" x="63.623047"/>
       <use xlink:href="#DejaVuSans-30" x="127.246094"/>
       <use xlink:href="#DejaVuSans-30" x="190.869141"/>
      </g>
     </g>
    </g>
    <g id="ytick_3">
     <g id="line2d_10">
      <g>
       <use xlink:href="#mbdb3879f87" x="57.6" y="226.612754" style="stroke: #000000; stroke-width: 0.8"/>
      </g>
     </g>
     <g id="text_11">
      <!-- 2000 -->
      <g transform="translate(25.15 230.411973) scale(0.1 -0.1)">
       <use xlink:href="#DejaVuSans-32"/>
       <use xlink:href="#DejaVuSans-30" x="63.623047"/>
       <use xlink:href="#DejaVuSans-30" x="127.246094"/>
       <use xlink:href="#DejaVuSans-30" x="190.869141"/>
      </g>
     </g>
    </g>
    <g id="ytick_4">
     <g id="line2d_11">
      <g>
       <use xlink:href="#mbdb3879f87" x="57.6" y="186.127131" style="stroke: #000000; stroke-width: 0.8"/>
      </g>
     </g>
     <g id="text_12">
      <!-- 3000 -->
      <g transform="translate(25.15 189.92635) scale(0.1 -0.1)">
       <defs>
        <path id="DejaVuSans-33" d="M 2597 2516 
Q 3050 2419 3304 2112 
Q 3559 1806 3559 1356 
Q 3559 666 3084 287 
Q 2609 -91 1734 -91 
Q 1441 -91 1130 -33 
Q 819 25 488 141 
L 488 750 
Q 750 597 1062 519 
Q 1375 441 1716 441 
Q 2309 441 2620 675 
Q 2931 909 2931 1356 
Q 2931 1769 2642 2001 
Q 2353 2234 1838 2234 
L 1294 2234 
L 1294 2753 
L 1863 2753 
Q 2328 2753 2575 2939 
Q 2822 3125 2822 3475 
Q 2822 3834 2567 4026 
Q 2313 4219 1838 4219 
Q 1578 4219 1281 4162 
Q 984 4106 628 3988 
L 628 4550 
Q 988 4650 1302 4700 
Q 1616 4750 1894 4750 
Q 2613 4750 3031 4423 
Q 3450 4097 3450 3541 
Q 3450 3153 3228 2886 
Q 3006 2619 2597 2516 
z
" transform="scale(0.015625)"/>
       </defs>
       <use xlink:href="#DejaVuSans-33"/>
       <use xlink:href="#DejaVuSans-30" x="63.623047"/>
       <use xlink:href="#DejaVuSans-30" x="127.246094"/>
       <use xlink:href="#DejaVuSans-30" x="190.869141"/>
      </g>
     </g>
    </g>
    <g id="ytick_5">
     <g id="line2d_12">
      <g>
       <use xlink:href="#mbdb3879f87" x="57.6" y="145.641508" style="stroke: #000000; stroke-width: 0.8"/>
      </g>
     </g>
     <g id="text_13">
      <!-- 4000 -->
      <g transform="translate(25.15 149.440727) scale(0.1 -0.1)">
       <defs>
        <path id="DejaVuSans-34" d="M 2419 4116 
L 825 1625 
L 2419 1625 
L 2419 4116 
z
M 2253 4666 
L 3047 4666 
L 3047 1625 
L 3713 1625 
L 3713 1100 
L 3047 1100 
L 3047 0 
L 2419 0 
L 2419 1100 
L 313 1100 
L 313 1709 
L 2253 4666 
z
" transform="scale(0.015625)"/>
       </defs>
       <use xlink:href="#DejaVuSans-34"/>
       <use xlink:href="#DejaVuSans-30" x="63.623047"/>
       <use xlink:href="#DejaVuSans-30" x="127.246094"/>
       <use xlink:href="#DejaVuSans-30" x="190.869141"/>
      </g>
     </g>
    </g>
    <g id="ytick_6">
     <g id="line2d_13">
      <g>
       <use xlink:href="#mbdb3879f87" x="57.6" y="105.155885" style="stroke: #000000; stroke-width: 0.8"/>
      </g>
     </g>
     <g id="text_14">
      <!-- 5000 -->
      <g transform="translate(25.15 108.955104) scale(0.1 -0.1)">
       <use xlink:href="#DejaVuSans-35"/>
       <use xlink:href="#DejaVuSans-30" x="63.623047"/>
       <use xlink:href="#DejaVuSans-30" x="127.246094"/>
       <use xlink:href="#DejaVuSans-30" x="190.869141"/>
      </g>
     </g>
    </g>
    <g id="ytick_7">
     <g id="line2d_14">
      <g>
       <use xlink:href="#mbdb3879f87" x="57.6" y="64.670262" style="stroke: #000000; stroke-width: 0.8"/>
      </g>
     </g>
     <g id="text_15">
      <!-- 6000 -->
      <g transform="translate(25.15 68.469481) scale(0.1 -0.1)">
       <defs>
        <path id="DejaVuSans-36" d="M 2113 2584 
Q 1688 2584 1439 2293 
Q 1191 2003 1191 1497 
Q 1191 994 1439 701 
Q 1688 409 2113 409 
Q 2538 409 2786 701 
Q 3034 994 3034 1497 
Q 3034 2003 2786 2293 
Q 2538 2584 2113 2584 
z
M 3366 4563 
L 3366 3988 
Q 3128 4100 2886 4159 
Q 2644 4219 2406 4219 
Q 1781 4219 1451 3797 
Q 1122 3375 1075 2522 
Q 1259 2794 1537 2939 
Q 1816 3084 2150 3084 
Q 2853 3084 3261 2657 
Q 3669 2231 3669 1497 
Q 3669 778 3244 343 
Q 2819 -91 2113 -91 
Q 1303 -91 875 529 
Q 447 1150 447 2328 
Q 447 3434 972 4092 
Q 1497 4750 2381 4750 
Q 2619 4750 2861 4703 
Q 3103 4656 3366 4563 
z
" transform="scale(0.015625)"/>
       </defs>
       <use xlink:href="#DejaVuSans-36"/>
       <use xlink:href="#DejaVuSans-30" x="63.623047"/>
       <use xlink:href="#DejaVuSans-30" x="127.246094"/>
       <use xlink:href="#DejaVuSans-30" x="190.869141"/>
      </g>
     </g>
    </g>
    <g id="text_16">
     <!-- Number of Events -->
     <g transform="translate(19.070312 219.5405) rotate(-90) scale(0.1 -0.1)">
      <defs>
       <path id="DejaVuSans-4e" d="M 628 4666 
L 1478 4666 
L 3547 763 
L 3547 4666 
L 4159 4666 
L 4159 0 
L 3309 0 
L 1241 3903 
L 1241 0 
L 628 0 
L 628 4666 
z
" transform="scale(0.015625)"/>
       <path id="DejaVuSans-75" d="M 544 1381 
L 544 3500 
L 1119 3500 
L 1119 1403 
Q 1119 906 1312 657 
Q 1506 409 1894 409 
Q 2359 409 2629 706 
Q 2900 1003 2900 1516 
L 2900 3500 
L 3475 3500 
L 3475 0 
L 2900 0 
L 2900 538 
Q 2691 219 2414 64 
Q 2138 -91 1772 -91 
Q 1169 -91 856 284 
Q 544 659 544 1381 
z
M 1991 3584 
L 1991 3584 
z
" transform="scale(0.015625)"/>
       <path id="DejaVuSans-6d" d="M 3328 2828 
Q 3544 3216 3844 3400 
Q 4144 3584 4550 3584 
Q 5097 3584 5394 3201 
Q 5691 2819 5691 2113 
L 5691 0 
L 5113 0 
L 5113 2094 
Q 5113 2597 4934 2840 
Q 4756 3084 4391 3084 
Q 3944 3084 3684 2787 
Q 3425 2491 3425 1978 
L 3425 0 
L 2847 0 
L 2847 2094 
Q 2847 2600 2669 2842 
Q 2491 3084 2119 3084 
Q 1678 3084 1418 2786 
Q 1159 2488 1159 1978 
L 1159 0 
L 581 0 
L 581 3500 
L 1159 3500 
L 1159 2956 
Q 1356 3278 1631 3431 
Q 1906 3584 2284 3584 
Q 2666 3584 2933 3390 
Q 3200 3197 3328 2828 
z
" transform="scale(0.015625)"/>
       <path id="DejaVuSans-62" d="M 3116 1747 
Q 3116 2381 2855 2742 
Q 2594 3103 2138 3103 
Q 1681 3103 1420 2742 
Q 1159 2381 1159 1747 
Q 1159 1113 1420 752 
Q 1681 391 2138 391 
Q 2594 391 2855 752 
Q 3116 1113 3116 1747 
z
M 1159 2969 
Q 1341 3281 1617 3432 
Q 1894 3584 2278 3584 
Q 2916 3584 3314 3078 
Q 3713 2572 3713 1747 
Q 3713 922 3314 415 
Q 2916 -91 2278 -91 
Q 1894 -91 1617 61 
Q 1341 213 1159 525 
L 1159 0 
L 581 0 
L 581 4863 
L 1159 4863 
L 1159 2969 
z
" transform="scale(0.015625)"/>
       <path id="DejaVuSans-6f" d="M 1959 3097 
Q 1497 3097 1228 2736 
Q 959 2375 959 1747 
Q 959 1119 1226 758 
Q 1494 397 1959 397 
Q 2419 397 2687 759 
Q 2956 1122 2956 1747 
Q 2956 2369 2687 2733 
Q 2419 3097 1959 3097 
z
M 1959 3584 
Q 2709 3584 3137 3096 
Q 3566 2609 3566 1747 
Q 3566 888 3137 398 
Q 2709 -91 1959 -91 
Q 1206 -91 779 398 
Q 353 888 353 1747 
Q 353 2609 779 3096 
Q 1206 3584 1959 3584 
z
" transform="scale(0.015625)"/>
       <path id="DejaVuSans-66" d="M 2375 4863 
L 2375 4384 
L 1825 4384 
Q 1516 4384 1395 4259 
Q 1275 4134 1275 3809 
L 1275 3500 
L 2222 3500 
L 2222 3053 
L 1275 3053 
L 1275 0 
L 697 0 
L 697 3053 
L 147 3053 
L 147 3500 
L 697 3500 
L 697 3744 
Q 697 4328 969 4595 
Q 1241 4863 1831 4863 
L 2375 4863 
z
" transform="scale(0.015625)"/>
       <path id="DejaVuSans-45" d="M 628 4666 
L 3578 4666 
L 3578 4134 
L 1259 4134 
L 1259 2753 
L 3481 2753 
L 3481 2222 
L 1259 2222 
L 1259 531 
L 3634 531 
L 3634 0 
L 628 0 
L 628 4666 
z
" transform="scale(0.015625)"/>
      </defs>
      <use xlink:href="#DejaVuSans-4e"/>
      <use xlink:href="#DejaVuSans-75" x="74.804688"/>
      <use xlink:href="#DejaVuSans-6d" x="138.183594"/>
      <use xlink:href="#DejaVuSans-62" x="235.595703"/>
      <use xlink:href="#DejaVuSans-65" x="299.072266"/>
      <use xlink:href="#DejaVuSans-72" x="360.595703"/>
      <use xlink:href="#DejaVuSans-20" x="401.708984"/>
      <use xlink:href="#DejaVuSans-6f" x="433.496094"/>
      <use xlink:href="#DejaVuSans-66" x="494.677734"/>
      <use xlink:href="#DejaVuSans-20" x="529.882812"/>
      <use xlink:href="#DejaVuSans-45" x="561.669922"/>
      <use xlink:href="#DejaVuSans-76" x="624.853516"/>
      <use xlink:href="#DejaVuSans-65" x="684.033203"/>
      <use xlink:href="#DejaVuSans-6e" x="745.556641"/>
      <use xlink:href="#DejaVuSans-74" x="808.935547"/>
      <use xlink:href="#DejaVuSans-73" x="848.144531"/>
     </g>
    </g>
   </g>
   <g id="patch_3">
    <path d="M 57.6 307.584 
L 57.6 203.697891 
L 58.314192 203.697891 
L 58.314192 199.487387 
L 59.028554 199.487387 
L 59.028554 202.078466 
L 59.742746 202.078466 
L 59.742746 200.823412 
L 60.456938 200.823412 
L 60.456938 199.446901 
L 61.17113 199.446901 
L 61.17113 200.0137 
L 61.885492 200.0137 
L 61.885492 201.430696 
L 62.599684 201.430696 
L 62.599684 203.981291 
L 63.313876 203.981291 
L 63.313876 201.876038 
L 64.028239 201.876038 
L 64.028239 202.32138 
L 64.742431 202.32138 
L 64.742431 206.046058 
L 65.456623 206.046058 
L 65.456623 205.924601 
L 66.170815 205.924601 
L 66.170815 203.900319 
L 66.885177 203.900319 
L 66.885177 205.114888 
L 67.599369 205.114888 
L 67.599369 204.629061 
L 68.313561 204.629061 
L 68.313561 204.507604 
L 69.027923 204.507604 
L 69.027923 205.155374 
L 69.742115 205.155374 
L 69.742115 205.519744 
L 70.456307 205.519744 
L 70.456307 203.212064 
L 71.170499 203.212064 
L 71.170499 203.090607 
L 71.884861 203.090607 
L 71.884861 201.997495 
L 72.599053 201.997495 
L 72.599053 202.564294 
L 73.313245 202.564294 
L 73.313245 208.110824 
L 74.027437 208.110824 
L 74.027437 207.827425 
L 74.7418 207.827425 
L 74.7418 203.454978 
L 76.170183 203.454978 
L 76.170183 207.746454 
L 76.884546 207.746454 
L 76.884546 204.952946 
L 77.598738 204.952946 
L 77.598738 206.127029 
L 78.31293 206.127029 
L 78.31293 205.114888 
L 79.027122 205.114888 
L 79.027122 208.515681 
L 79.741484 208.515681 
L 79.741484 206.046058 
L 80.455676 206.046058 
L 80.455676 208.961022 
L 81.169868 208.961022 
L 81.169868 208.394224 
L 81.88423 208.394224 
L 81.88423 208.920537 
L 82.598422 208.920537 
L 82.598422 208.637137 
L 83.312614 208.637137 
L 83.312614 210.135105 
L 84.026806 210.135105 
L 84.026806 214.062211 
L 84.741168 214.062211 
L 84.741168 211.875987 
L 85.45536 211.875987 
L 85.45536 210.580447 
L 86.169552 210.580447 
L 86.169552 211.349674 
L 86.883915 211.349674 
L 86.883915 209.770735 
L 87.598107 209.770735 
L 87.598107 212.969099 
L 88.312299 212.969099 
L 88.312299 211.75453 
L 89.026491 211.75453 
L 89.026491 210.823361 
L 89.740853 210.823361 
L 89.740853 210.701904 
L 90.455045 210.701904 
L 90.455045 212.321329 
L 91.169237 212.321329 
L 91.169237 207.908396 
L 91.883599 207.908396 
L 91.883599 210.701904 
L 92.597791 210.701904 
L 92.597791 213.33347 
L 93.311983 213.33347 
L 93.311983 213.69784 
L 94.026175 213.69784 
L 94.026175 209.608792 
L 94.740537 209.608792 
L 94.740537 214.669495 
L 95.454729 214.669495 
L 95.454729 211.066275 
L 96.168921 211.066275 
L 96.168921 215.114837 
L 96.883283 215.114837 
L 96.883283 213.373955 
L 97.597475 213.373955 
L 97.597475 209.932677 
L 98.311667 209.932677 
L 98.311667 213.212013 
L 99.025859 213.212013 
L 99.025859 211.956958 
L 99.740222 211.956958 
L 99.740222 214.426581 
L 100.454414 214.426581 
L 100.454414 215.033866 
L 101.168606 215.033866 
L 101.168606 213.212013 
L 101.882798 213.212013 
L 101.882798 209.487335 
L 102.59716 209.487335 
L 102.59716 210.701904 
L 103.311352 210.701904 
L 103.311352 213.778812 
L 104.025544 213.778812 
L 104.025544 210.944818 
L 104.739906 210.944818 
L 104.739906 211.835502 
L 105.454098 211.835502 
L 105.454098 210.863847 
L 106.16829 210.863847 
L 106.16829 215.479208 
L 106.882482 215.479208 
L 106.882482 211.187732 
L 107.596844 211.187732 
L 107.596844 213.212013 
L 108.311036 213.212013 
L 108.311036 210.580447 
L 109.025228 210.580447 
L 109.025228 209.892192 
L 109.73959 209.892192 
L 109.73959 212.564243 
L 110.453782 212.564243 
L 110.453782 215.357751 
L 111.167974 215.357751 
L 111.167974 212.969099 
L 111.882166 212.969099 
L 111.882166 208.029853 
L 112.596529 208.029853 
L 112.596529 209.487335 
L 113.310721 209.487335 
L 113.310721 211.552102 
L 114.024913 211.552102 
L 114.024913 210.378019 
L 114.739275 210.378019 
L 114.739275 212.03793 
L 115.453467 212.03793 
L 115.453467 207.705968 
L 116.167659 207.705968 
L 116.167659 209.001508 
L 116.881851 209.001508 
L 116.881851 207.584511 
L 117.596213 207.584511 
L 117.596213 208.475195 
L 118.310405 208.475195 
L 118.310405 203.819348 
L 119.024597 203.819348 
L 119.024597 207.544026 
L 119.738959 207.544026 
L 119.738959 204.750518 
L 120.453151 204.750518 
L 120.453151 197.665534 
L 121.167343 197.665534 
L 121.167343 202.564294 
L 121.881535 202.564294 
L 121.881535 198.272818 
L 122.595898 198.272818 
L 122.595898 196.167565 
L 123.31009 196.167565 
L 123.31009 193.900371 
L 124.024282 193.900371 
L 124.024282 187.908498 
L 124.738644 187.908498 
L 124.738644 188.191898 
L 125.452836 188.191898 
L 125.452836 180.985457 
L 126.167028 180.985457 
L 126.167028 182.645367 
L 126.88122 182.645367 
L 126.88122 172.281048 
L 127.595582 172.281048 
L 127.595582 168.596856 
L 128.309774 168.596856 
L 128.309774 159.12322 
L 129.023966 159.12322 
L 129.023966 154.22446 
L 129.738158 154.22446 
L 129.738158 144.629367 
L 130.45252 144.629367 
L 130.45252 138.799438 
L 131.166712 138.799438 
L 131.166712 124.34607 
L 131.880904 124.34607 
L 131.880904 123.6983 
L 132.595266 123.6983 
L 132.595266 111.552613 
L 133.309458 111.552613 
L 133.309458 97.908958 
L 134.02365 97.908958 
L 134.02365 93.941367 
L 134.737842 93.941367 
L 134.737842 80.054799 
L 135.452205 80.054799 
L 135.452205 76.168179 
L 136.166397 76.168179 
L 136.166397 65.763374 
L 136.880589 65.763374 
L 136.880589 63.172294 
L 137.594951 63.172294 
L 137.594951 56.694594 
L 138.309143 56.694594 
L 138.309143 54.144 
L 139.023335 54.144 
L 139.023335 60.459757 
L 139.737527 60.459757 
L 139.737527 57.261393 
L 140.451889 57.261393 
L 140.451889 64.548805 
L 141.166081 64.548805 
L 141.166081 67.099399 
L 141.880273 67.099399 
L 141.880273 73.536613 
L 142.594635 73.536613 
L 142.594635 76.694492 
L 143.308827 76.694492 
L 143.308827 87.180268 
L 144.023019 87.180268 
L 144.023019 98.273329 
L 144.737211 98.273329 
L 144.737211 108.597163 
L 145.451573 108.597163 
L 145.451573 116.734773 
L 146.165765 116.734773 
L 146.165765 129.325802 
L 146.879957 129.325802 
L 146.879957 140.175949 
L 147.59432 140.175949 
L 147.59432 148.111131 
L 148.308512 148.111131 
L 148.308512 153.617176 
L 149.022704 153.617176 
L 149.022704 161.673815 
L 149.736896 161.673815 
L 149.736896 172.807361 
L 150.451258 172.807361 
L 150.451258 182.442939 
L 151.16545 182.442939 
L 151.16545 184.831591 
L 151.879642 184.831591 
L 151.879642 194.548141 
L 152.594004 194.548141 
L 152.594004 200.094671 
L 153.308196 200.094671 
L 153.308196 202.078466 
L 154.022388 202.078466 
L 154.022388 207.058198 
L 154.73658 207.058198 
L 154.73658 208.79908 
L 155.450942 208.79908 
L 155.450942 211.997444 
L 156.165134 211.997444 
L 156.165134 214.143182 
L 156.879326 214.143182 
L 156.879326 218.434658 
L 157.593518 218.434658 
L 157.593518 223.495361 
L 158.307881 223.495361 
L 158.307881 224.669444 
L 159.022073 224.669444 
L 159.022073 219.973112 
L 159.736264 219.973112 
L 159.736264 224.386045 
L 160.450627 224.386045 
L 160.450627 228.920435 
L 161.164819 228.920435 
L 161.164819 226.045955 
L 161.879011 226.045955 
L 161.879011 227.543923 
L 162.593203 227.543923 
L 162.593203 226.207898 
L 163.307565 226.207898 
L 163.307565 231.875885 
L 164.021757 231.875885 
L 164.021757 231.228115 
L 164.735949 231.228115 
L 164.735949 230.013546 
L 165.450311 230.013546 
L 165.450311 231.754428 
L 166.164503 231.754428 
L 166.164503 228.798978 
L 166.878695 228.798978 
L 166.878695 231.025687 
L 168.307249 231.066173 
L 168.307249 233.819195 
L 169.021441 233.819195 
L 169.021441 230.944716 
L 169.735633 230.944716 
L 169.735633 232.523655 
L 170.449996 232.523655 
L 170.449996 231.754428 
L 171.164188 231.754428 
L 171.164188 231.956856 
L 171.87838 231.956856 
L 171.87838 233.171425 
L 172.592572 233.171425 
L 172.592572 232.442684 
L 173.306934 232.442684 
L 173.306934 234.183565 
L 174.021126 234.183565 
L 174.021126 237.503387 
L 174.735318 237.503387 
L 174.735318 237.058045 
L 175.44968 237.058045 
L 175.44968 235.681534 
L 176.163872 235.681534 
L 176.163872 233.900166 
L 176.878064 233.900166 
L 176.878064 237.09853 
L 177.592256 237.09853 
L 177.592256 236.126875 
L 178.306618 236.126875 
L 178.306618 236.653188 
L 179.02081 236.653188 
L 179.02081 233.778709 
L 179.735002 233.778709 
L 179.735002 236.45076 
L 180.449364 236.45076 
L 180.449364 235.924447 
L 181.163556 235.924447 
L 181.163556 236.329304 
L 181.877748 236.329304 
L 181.877748 234.224051 
L 182.59194 234.224051 
L 182.59194 238.717955 
L 183.306303 238.717955 
L 183.306303 236.410275 
L 184.020495 236.410275 
L 184.020495 237.989214 
L 184.734687 237.989214 
L 184.734687 241.066121 
L 185.448879 241.066121 
L 185.448879 236.288818 
L 186.163241 236.288818 
L 186.163241 239.892038 
L 186.877433 239.892038 
L 186.877433 236.572217 
L 187.591625 236.572217 
L 187.591625 238.0297 
L 188.305987 238.0297 
L 188.305987 237.09853 
L 189.020179 237.09853 
L 189.020179 243.090403 
L 189.734371 243.090403 
L 189.734371 237.584358 
L 190.448563 237.584358 
L 190.448563 238.636984 
L 191.162925 238.636984 
L 191.162925 237.624843 
L 191.877117 237.624843 
L 191.877117 236.572217 
L 192.591309 236.572217 
L 192.591309 242.442633 
L 193.305672 242.442633 
L 193.305672 243.697687 
L 194.019863 243.697687 
L 194.019863 237.462901 
L 195.448247 237.543872 
L 195.448247 238.596498 
L 196.16261 238.596498 
L 196.16261 239.97301 
L 196.876802 239.97301 
L 196.876802 240.944665 
L 197.590994 240.944665 
L 197.590994 239.122812 
L 198.305356 239.122812 
L 198.305356 242.199719 
L 199.019548 242.199719 
L 199.019548 240.013495 
L 200.447932 239.932524 
L 200.447932 239.527668 
L 201.162294 239.527668 
L 201.162294 237.38193 
L 201.876486 237.38193 
L 201.876486 243.57623 
L 202.590678 243.57623 
L 202.590678 241.390006 
L 203.30504 241.390006 
L 203.30504 239.122812 
L 204.019232 239.122812 
L 204.019232 241.511463 
L 204.733424 241.511463 
L 204.733424 240.175438 
L 205.447616 240.175438 
L 205.447616 239.446696 
L 206.161979 239.446696 
L 206.161979 241.430492 
L 206.876171 241.430492 
L 206.876171 242.078262 
L 207.590363 242.078262 
L 207.590363 242.968946 
L 208.304725 242.968946 
L 208.304725 239.730096 
L 209.018917 239.730096 
L 209.018917 242.968946 
L 209.733109 242.968946 
L 209.733109 242.118748 
L 210.447301 242.118748 
L 210.447301 242.887974 
L 211.161663 242.887974 
L 211.161663 243.616716 
L 211.875855 243.616716 
L 211.875855 242.645061 
L 212.590047 242.645061 
L 212.590047 241.835348 
L 213.304239 241.835348 
L 213.304239 244.709827 
L 214.018601 244.709827 
L 214.018601 240.499323 
L 214.732793 240.499323 
L 214.732793 242.28069 
L 215.446985 242.28069 
L 215.446985 242.968946 
L 216.161347 242.968946 
L 216.161347 244.264486 
L 216.875539 244.264486 
L 216.875539 243.535744 
L 217.589731 243.535744 
L 217.589731 242.523604 
L 218.303923 242.523604 
L 218.303923 239.608639 
L 219.018286 239.608639 
L 219.018286 241.066121 
L 219.732478 241.066121 
L 219.732478 243.333316 
L 220.44667 243.333316 
L 220.44667 236.977073 
L 221.161032 236.977073 
L 221.161032 238.110671 
L 221.875224 238.110671 
L 221.875224 240.215923 
L 222.589416 240.215923 
L 222.589416 240.661265 
L 223.303608 240.661265 
L 223.303608 237.179502 
L 224.01797 237.179502 
L 224.01797 241.025636 
L 224.732162 241.025636 
L 224.732162 234.79085 
L 225.446354 234.79085 
L 225.446354 238.151157 
L 226.160716 238.151157 
L 226.160716 234.709879 
L 226.874908 234.709879 
L 226.874908 236.167361 
L 227.5891 236.167361 
L 227.5891 229.244319 
L 228.303292 229.244319 
L 228.303292 229.973061 
L 229.017654 229.973061 
L 229.017654 228.879949 
L 229.731846 228.879949 
L 229.731846 223.940703 
L 230.446038 223.940703 
L 230.446038 228.96092 
L 231.160401 228.96092 
L 231.160401 224.06216 
L 231.874593 224.06216 
L 231.874593 225.479157 
L 232.588785 225.479157 
L 232.588785 219.001457 
L 233.302977 219.001457 
L 233.302977 221.592537 
L 234.017339 221.592537 
L 234.017339 216.693776 
L 234.731531 216.693776 
L 234.731531 217.948831 
L 235.445723 217.948831 
L 235.445723 212.807157 
L 236.160085 212.807157 
L 236.160085 211.511617 
L 238.302661 211.430645 
L 238.302661 209.406364 
L 239.017023 209.406364 
L 239.017023 210.378019 
L 241.159599 210.337534 
L 241.159599 212.159387 
L 241.873962 212.159387 
L 241.873962 213.454927 
L 242.588154 213.454927 
L 242.588154 217.260575 
L 243.302346 217.260575 
L 243.302346 215.681636 
L 244.016708 215.681636 
L 244.016708 214.99338 
L 244.7309 214.99338 
L 244.7309 219.932626 
L 245.445092 219.932626 
L 245.445092 222.321278 
L 246.159284 222.321278 
L 246.159284 223.859732 
L 246.873646 223.859732 
L 246.873646 224.386045 
L 247.587838 224.386045 
L 247.587838 228.637035 
L 248.30203 228.637035 
L 248.30203 231.835399 
L 249.016392 231.835399 
L 249.016392 228.434607 
L 249.730584 228.434607 
L 249.730584 236.08639 
L 250.444776 236.08639 
L 250.444776 239.811067 
L 251.158968 239.811067 
L 251.158968 238.758441 
L 251.87333 238.758441 
L 251.87333 237.09853 
L 252.587522 237.09853 
L 252.587522 242.847489 
L 253.301714 242.847489 
L 253.301714 239.527668 
L 254.016077 239.527668 
L 254.016077 243.211859 
L 254.730269 243.211859 
L 254.730269 243.859629 
L 255.444461 243.859629 
L 255.444461 244.062058 
L 256.873015 243.981086 
L 256.873015 246.572166 
L 257.587207 246.572166 
L 257.587207 250.175387 
L 258.301399 250.175387 
L 258.301399 249.082275 
L 259.015761 249.082275 
L 259.015761 250.863642 
L 259.729953 250.863642 
L 259.729953 251.025585 
L 260.444145 251.025585 
L 260.444145 250.256358 
L 261.158337 250.256358 
L 261.158337 251.389955 
L 261.872699 251.389955 
L 261.872699 251.511412 
L 262.586891 251.511412 
L 262.586891 249.689559 
L 263.301083 249.689559 
L 263.301083 253.495208 
L 264.015275 253.495208 
L 264.015275 252.564038 
L 265.443829 252.523553 
L 265.443829 252.321125 
L 266.158021 252.321125 
L 266.158021 251.99724 
L 266.872384 251.99724 
L 266.872384 251.632869 
L 267.586576 251.632869 
L 267.586576 253.535693 
L 268.300768 253.535693 
L 268.300768 252.523553 
L 269.729322 252.442581 
L 269.729322 254.30492 
L 270.443514 254.30492 
L 270.443514 252.36161 
L 271.157706 252.36161 
L 271.157706 253.454722 
L 271.872068 253.454722 
L 271.872068 255.195604 
L 272.58626 255.195604 
L 272.58626 254.345406 
L 274.014644 254.264435 
L 274.014644 257.867655 
L 274.729006 257.867655 
L 274.729006 253.495208 
L 275.443198 253.495208 
L 275.443198 254.547834 
L 276.15739 254.547834 
L 276.15739 255.155118 
L 276.871753 255.155118 
L 276.871753 254.264435 
L 277.585945 254.264435 
L 277.585945 252.483067 
L 278.300137 252.483067 
L 278.300137 254.466863 
L 279.014328 254.466863 
L 279.014328 252.240153 
L 279.728691 252.240153 
L 279.728691 255.357546 
L 280.442883 255.357546 
L 280.442883 253.333265 
L 281.157075 253.333265 
L 281.157075 253.535693 
L 281.871437 253.535693 
L 281.871437 254.993176 
L 282.585629 254.993176 
L 282.585629 252.36161 
L 283.299821 252.36161 
L 283.299821 252.968895 
L 284.014013 252.968895 
L 284.014013 249.608588 
L 284.728375 249.608588 
L 284.728375 249.932473 
L 285.442567 249.932473 
L 285.442567 250.782671 
L 286.156759 250.782671 
L 286.156759 251.025585 
L 286.871121 251.025585 
L 286.871121 248.353534 
L 287.585313 248.353534 
L 287.585313 248.029649 
L 288.299505 248.029649 
L 288.299505 248.232077 
L 289.013697 248.232077 
L 289.013697 248.555962 
L 289.72806 248.555962 
L 289.72806 245.155169 
L 290.442252 245.155169 
L 290.442252 245.721968 
L 291.156444 245.721968 
L 291.156444 246.734109 
L 291.870636 246.734109 
L 291.870636 244.709827 
L 292.584998 244.709827 
L 292.584998 246.045853 
L 293.29919 246.045853 
L 293.29919 241.430492 
L 294.013382 241.430492 
L 294.013382 240.944665 
L 294.727744 240.944665 
L 294.727744 242.968946 
L 295.441936 242.968946 
L 295.441936 241.835348 
L 296.156128 241.835348 
L 296.156128 241.066121 
L 297.584682 241.147093 
L 297.584682 238.798927 
L 298.298874 238.798927 
L 298.298874 239.608639 
L 299.013066 239.608639 
L 299.013066 237.7463 
L 299.727428 237.7463 
L 299.727428 238.0297 
L 300.44162 238.0297 
L 300.44162 241.309035 
L 301.155812 241.309035 
L 301.155812 241.997291 
L 301.870004 241.997291 
L 301.870004 243.373802 
L 302.584367 243.373802 
L 302.584367 242.887974 
L 303.298559 242.887974 
L 303.298559 244.224 
L 304.012751 244.224 
L 304.012751 241.754377 
L 304.727113 241.754377 
L 304.727113 248.717904 
L 305.441305 248.717904 
L 305.441305 246.329252 
L 306.155497 246.329252 
L 306.155497 249.972958 
L 306.869689 249.972958 
L 306.869689 247.989163 
L 307.584051 247.989163 
L 307.584051 251.06607 
L 309.012435 250.985099 
L 309.012435 251.916268 
L 309.726797 251.916268 
L 309.726797 253.819093 
L 311.155181 253.778607 
L 311.155181 253.535693 
L 311.869373 253.535693 
L 311.869373 255.114633 
L 312.583736 255.114633 
L 312.583736 257.908141 
L 313.297927 257.908141 
L 313.297927 255.438518 
L 314.012119 255.438518 
L 314.012119 258.555911 
L 314.726482 258.555911 
L 314.726482 259.891936 
L 315.440674 259.891936 
L 315.440674 258.232026 
L 316.154866 258.232026 
L 316.154866 259.406109 
L 316.869058 259.406109 
L 316.869058 257.908141 
L 317.58342 257.908141 
L 317.58342 261.470875 
L 318.297612 261.470875 
L 318.297612 259.325137 
L 319.011804 259.325137 
L 319.011804 260.661163 
L 319.725996 260.661163 
L 319.725996 262.037674 
L 320.440358 262.037674 
L 320.440358 261.470875 
L 321.15455 261.470875 
L 321.15455 261.916217 
L 321.868742 261.916217 
L 321.868742 259.527565 
L 322.583104 259.527565 
L 322.583104 261.389904 
L 323.297296 261.389904 
L 323.297296 260.580192 
L 324.011488 260.580192 
L 324.011488 263.333214 
L 324.72568 263.333214 
L 324.72568 261.14699 
L 325.440043 261.14699 
L 325.440043 261.349419 
L 326.154235 261.349419 
L 326.154235 263.252243 
L 326.868427 263.252243 
L 326.868427 262.72593 
L 327.582789 262.72593 
L 327.582789 263.535642 
L 328.296981 263.535642 
L 328.296981 262.361559 
L 329.011173 262.361559 
L 329.011173 263.171272 
L 329.725365 263.171272 
L 329.725365 264.223898 
L 330.439727 264.223898 
L 330.439727 265.559923 
L 331.153919 265.559923 
L 331.153919 265.114581 
L 331.868111 265.114581 
L 331.868111 263.657099 
L 332.582473 263.657099 
L 332.582473 265.600409 
L 333.296665 265.600409 
L 333.296665 262.72593 
L 334.010857 262.72593 
L 334.010857 265.843323 
L 334.725049 265.843323 
L 334.725049 264.02147 
L 336.153603 263.980984 
L 336.153603 262.887872 
L 336.867795 262.887872 
L 336.867795 264.061955 
L 337.582158 264.061955 
L 337.582158 264.183412 
L 338.29635 264.183412 
L 338.29635 262.563987 
L 339.010542 262.563987 
L 339.010542 265.883808 
L 341.153288 265.802837 
L 341.153288 264.750211 
L 341.86748 264.750211 
L 341.86748 266.936435 
L 342.581842 266.936435 
L 342.581842 268.191489 
L 343.296034 268.191489 
L 343.296034 263.130786 
L 344.010226 263.130786 
L 344.010226 265.762351 
L 344.724418 265.762351 
L 344.724418 264.912153 
L 345.43878 264.912153 
L 345.43878 268.717802 
L 346.152972 268.717802 
L 346.152972 266.572064 
L 346.867164 266.572064 
L 346.867164 266.97692 
L 347.581356 266.97692 
L 347.581356 265.519438 
L 348.295718 265.519438 
L 348.295718 265.640895 
L 349.00991 265.640895 
L 349.00991 267.705661 
L 350.438465 267.705661 
L 350.438465 265.155067 
L 351.152657 265.155067 
L 351.152657 264.02147 
L 351.866849 264.02147 
L 351.866849 266.126722 
L 352.581041 266.126722 
L 352.581041 266.734006 
L 353.295403 266.734006 
L 353.295403 266.126722 
L 354.009595 266.126722 
L 354.009595 268.110518 
L 354.723787 268.110518 
L 354.723787 267.179348 
L 355.438149 267.179348 
L 355.438149 267.422262 
L 356.152341 267.422262 
L 356.152341 266.045751 
L 356.866533 266.045751 
L 356.866533 268.677316 
L 357.580725 268.677316 
L 357.580725 270.094313 
L 358.295087 270.094313 
L 358.295087 266.086236 
L 359.009279 266.086236 
L 359.009279 267.948575 
L 360.437834 267.908089 
L 360.437834 266.653035 
L 361.152026 266.653035 
L 361.152026 268.393917 
L 361.866218 268.393917 
L 361.866218 267.422262 
L 362.58041 267.422262 
L 362.58041 267.138863 
L 363.294772 267.138863 
L 363.294772 269.689457 
L 364.008964 269.689457 
L 364.008964 268.960716 
L 364.723156 268.960716 
L 364.723156 268.758288 
L 365.437518 268.758288 
L 365.437518 267.746147 
L 366.15171 267.746147 
L 366.15171 268.191489 
L 366.865902 268.191489 
L 366.865902 269.689457 
L 367.580094 269.689457 
L 367.580094 268.353431 
L 368.294456 268.353431 
L 368.294456 269.041687 
L 369.008648 269.041687 
L 369.008648 268.434403 
L 369.72284 268.434403 
L 369.72284 268.231974 
L 371.151394 268.27246 
L 371.151394 269.001201 
L 371.865586 269.001201 
L 371.865586 270.134799 
L 372.579778 270.134799 
L 372.579778 269.770428 
L 373.294141 269.770428 
L 373.294141 266.855463 
L 374.008333 266.855463 
L 374.008333 269.608486 
L 374.722525 269.608486 
L 374.722525 267.989061 
L 375.436717 267.989061 
L 375.436717 270.21577 
L 376.151079 270.21577 
L 376.151079 267.057891 
L 376.865271 267.057891 
L 376.865271 270.458684 
L 377.579463 270.458684 
L 377.579463 266.653035 
L 378.293825 266.653035 
L 378.293825 271.146939 
L 379.008017 271.146939 
L 379.008017 270.21577 
L 379.722209 270.21577 
L 379.722209 269.001201 
L 380.436401 269.001201 
L 380.436401 270.984997 
L 381.150763 270.984997 
L 381.150763 270.337227 
L 381.864955 270.337227 
L 381.864955 272.321022 
L 382.579147 272.321022 
L 382.579147 271.430339 
L 383.293509 271.430339 
L 383.293509 271.875681 
L 384.007701 271.875681 
L 384.007701 272.037623 
L 384.721893 272.037623 
L 384.721893 269.365572 
L 385.436085 269.365572 
L 385.436085 271.065968 
L 386.150448 271.065968 
L 386.150448 272.321022 
L 386.86464 272.321022 
L 386.86464 269.487029 
L 387.578832 269.487029 
L 387.578832 271.389853 
L 388.293194 271.389853 
L 388.293194 269.527514 
L 389.007386 269.527514 
L 389.007386 271.308882 
L 389.721578 271.308882 
L 389.721578 273.980933 
L 390.43577 273.980933 
L 390.43577 271.754224 
L 391.864324 271.673252 
L 391.864324 271.065968 
L 392.578516 271.065968 
L 392.578516 271.51131 
L 393.292878 271.51131 
L 393.292878 268.758288 
L 394.00707 268.758288 
L 394.00707 270.904026 
L 394.721262 270.904026 
L 394.721262 273.009278 
L 395.435454 273.009278 
L 395.435454 272.847335 
L 396.149817 272.847335 
L 396.149817 271.956652 
L 396.864009 271.956652 
L 396.864009 273.980933 
L 397.5782 273.980933 
L 397.5782 273.495105 
L 398.292563 273.495105 
L 398.292563 271.835195 
L 399.006755 271.835195 
L 399.006755 272.52345 
L 399.720947 272.52345 
L 399.720947 271.470824 
L 400.435139 271.470824 
L 400.435139 273.252192 
L 401.149501 273.252192 
L 401.149501 274.628703 
L 401.863693 274.628703 
L 401.863693 272.15908 
L 402.577885 272.15908 
L 402.577885 271.106454 
L 403.292077 271.106454 
L 403.292077 272.118594 
L 404.006439 272.118594 
L 404.006439 274.46676 
L 405.434823 274.507246 
L 405.434823 272.847335 
L 406.149185 272.847335 
L 406.149185 274.142875 
L 406.863377 274.142875 
L 406.863377 273.697534 
L 407.577569 273.697534 
L 407.577569 271.268396 
L 408.291761 271.268396 
L 408.291761 270.175284 
L 409.006124 270.175284 
L 409.006124 273.292677 
L 409.720316 273.292677 
L 409.720316 271.673252 
L 410.434508 271.673252 
L 410.434508 274.021419 
L 411.14887 274.021419 
L 411.14887 271.51131 
L 411.863062 271.51131 
L 411.863062 273.45462 
L 412.577254 273.45462 
L 412.577254 272.037623 
L 413.291446 272.037623 
L 413.291446 272.563936 
L 414.005808 272.563936 
L 414.005808 271.632767 
L 414.72 271.632767 
L 414.72 307.584 
L 414.72 307.584 
" clip-path="url(#pe37b087a1e)" style="fill: none; stroke: #1f77b4; stroke-linejoin: miter"/>
   </g>
   <g id="patch_4">
    <path d="M 57.6 307.584 
L 57.6 41.472 
" style="fill: none; stroke: #000000; stroke-width: 0.8; stroke-linejoin: miter; stroke-linecap: square"/>
   </g>
   <g id="patch_5">
    <path d="M 414.72 307.584 
L 414.72 41.472 
" style="fill: none; stroke: #000000; stroke-width: 0.8; stroke-linejoin: miter; stroke-linecap: square"/>
   </g>
   <g id="patch_6">
    <path d="M 57.6 307.584 
L 414.72 307.584 
" style="fill: none; stroke: #000000; stroke-width: 0.8; stroke-linejoin: miter; stroke-linecap: square"/>
   </g>
   <g id="patch_7">
    <path d="M 57.6 41.472 
L 414.72 41.472 
" style="fill: none; stroke: #000000; stroke-width: 0.8; stroke-linejoin: miter; stroke-linecap: square"/>
   </g>
   <g id="text_17">
    <!-- Histogram of Invariant Mass of Muon Pairs -->
    <g transform="translate(109.419375 35.472) scale(0.12 -0.12)">
     <defs>
      <path id="DejaVuSans-48" d="M 628 4666 
L 1259 4666 
L 1259 2753 
L 3553 2753 
L 3553 4666 
L 4184 4666 
L 4184 0 
L 3553 0 
L 3553 2222 
L 1259 2222 
L 1259 0 
L 628 0 
L 628 4666 
z
" transform="scale(0.015625)"/>
      <path id="DejaVuSans-67" d="M 2906 1791 
Q 2906 2416 2648 2759 
Q 2391 3103 1925 3103 
Q 1463 3103 1205 2759 
Q 947 2416 947 1791 
Q 947 1169 1205 825 
Q 1463 481 1925 481 
Q 2391 481 2648 825 
Q 2906 1169 2906 1791 
z
M 3481 434 
Q 3481 -459 3084 -895 
Q 2688 -1331 1869 -1331 
Q 1566 -1331 1297 -1286 
Q 1028 -1241 775 -1147 
L 775 -588 
Q 1028 -725 1275 -790 
Q 1522 -856 1778 -856 
Q 2344 -856 2625 -561 
Q 2906 -266 2906 331 
L 2906 616 
Q 2728 306 2450 153 
Q 2172 0 1784 0 
Q 1141 0 747 490 
Q 353 981 353 1791 
Q 353 2603 747 3093 
Q 1141 3584 1784 3584 
Q 2172 3584 2450 3431 
Q 2728 3278 2906 2969 
L 2906 3500 
L 3481 3500 
L 3481 434 
z
" transform="scale(0.015625)"/>
      <path id="DejaVuSans-50" d="M 1259 4147 
L 1259 2394 
L 2053 2394 
Q 2494 2394 2734 2622 
Q 2975 2850 2975 3272 
Q 2975 3691 2734 3919 
Q 2494 4147 2053 4147 
L 1259 4147 
z
M 628 4666 
L 2053 4666 
Q 2838 4666 3239 4311 
Q 3641 3956 3641 3272 
Q 3641 2581 3239 2228 
Q 2838 1875 2053 1875 
L 1259 1875 
L 1259 0 
L 628 0 
L 628 4666 
z
" transform="scale(0.015625)"/>
     </defs>
     <use xlink:href="#DejaVuSans-48"/>
     <use xlink:href="#DejaVuSans-69" x="75.195312"/>
     <use xlink:href="#DejaVuSans-73" x="102.978516"/>
     <use xlink:href="#DejaVuSans-74" x="155.078125"/>
     <use xlink:href="#DejaVuSans-6f" x="194.287109"/>
     <use xlink:href="#DejaVuSans-67" x="255.46875"/>
     <use xlink:href="#DejaVuSans-72" x="318.945312"/>
     <use xlink:href="#DejaVuSans-61" x="360.058594"/>
     <use xlink:href="#DejaVuSans-6d" x="421.337891"/>
     <use xlink:href="#DejaVuSans-20" x="518.75"/>
     <use xlink:href="#DejaVuSans-6f" x="550.537109"/>
     <use xlink:href="#DejaVuSans-66" x="611.71875"/>
     <use xlink:href="#DejaVuSans-20" x="646.923828"/>
     <use xlink:href="#DejaVuSans-49" x="678.710938"/>
     <use xlink:href="#DejaVuSans-6e" x="708.203125"/>
     <use xlink:href="#DejaVuSans-76" x="771.582031"/>
     <use xlink:href="#DejaVuSans-61" x="830.761719"/>
     <use xlink:href="#DejaVuSans-72" x="892.041016"/>
     <use xlink:href="#DejaVuSans-69" x="933.154297"/>
     <use xlink:href="#DejaVuSans-61" x="960.9375"/>
     <use xlink:href="#DejaVuSans-6e" x="1022.216797"/>
     <use xlink:href="#DejaVuSans-74" x="1085.595703"/>
     <use xlink:href="#DejaVuSans-20" x="1124.804688"/>
     <use xlink:href="#DejaVuSans-4d" x="1156.591797"/>
     <use xlink:href="#DejaVuSans-61" x="1242.871094"/>
     <use xlink:href="#DejaVuSans-73" x="1304.150391"/>
     <use xlink:href="#DejaVuSans-73" x="1356.25"/>
     <use xlink:href="#DejaVuSans-20" x="1408.349609"/>
     <use xlink:href="#DejaVuSans-6f" x="1440.136719"/>
     <use xlink:href="#DejaVuSans-66" x="1501.318359"/>
     <use xlink:href="#DejaVuSans-20" x="1536.523438"/>
     <use xlink:href="#DejaVuSans-4d" x="1568.310547"/>
     <use xlink:href="#DejaVuSans-75" x="1654.589844"/>
     <use xlink:href="#DejaVuSans-6f" x="1717.96875"/>
     <use xlink:href="#DejaVuSans-6e" x="1779.150391"/>
     <use xlink:href="#DejaVuSans-20" x="1842.529297"/>
     <use xlink:href="#DejaVuSans-50" x="1874.316406"/>
     <use xlink:href="#DejaVuSans-61" x="1930.119141"/>
     <use xlink:href="#DejaVuSans-69" x="1991.398438"/>
     <use xlink:href="#DejaVuSans-72" x="2019.181641"/>
     <use xlink:href="#DejaVuSans-73" x="2060.294922"/>
    </g>
   </g>
  </g>
 </g>
 <defs>
  <clipPath id="pe37b087a1e">
   <rect x="57.6" y="41.472" width="357.12" height="266.112"/>
  </clipPath>
 </defs>
</svg>
